<svg xmlns="http://www.w3.org/2000/svg" width="41" height="38" viewBox="0 0 41 38" fill="none">
    <path d="M26.0599 16.6516L19.4555 10.4797C19.1509 10.185 18.9824 9.7903 18.9862 9.38062C18.99 8.97094 19.1659 8.57904 19.4759 8.28934C19.7859 7.99964 20.2052 7.83531 20.6436 7.83175C21.082 7.82819 21.5044 7.98569 21.8197 8.27031L31.2782 17.1094C31.434 17.2541 31.5577 17.4263 31.642 17.6159C31.7264 17.8054 31.7698 18.0087 31.7698 18.2141C31.7698 18.4194 31.7264 18.6227 31.642 18.8123C31.5577 19.0019 31.434 19.174 31.2782 19.3187L21.8197 28.1578C21.6655 28.307 21.481 28.4261 21.277 28.508C21.073 28.5899 20.8536 28.633 20.6316 28.6348C20.4096 28.6366 20.1894 28.597 19.9839 28.5185C19.7784 28.4399 19.5918 28.3239 19.4348 28.1772C19.2778 28.0305 19.1536 27.856 19.0696 27.664C18.9855 27.472 18.9432 27.2662 18.9451 27.0587C18.947 26.8513 18.9932 26.6462 19.0808 26.4556C19.1684 26.265 19.2958 26.0926 19.4555 25.9484L26.0599 19.7766H10.0321C9.58867 19.7766 9.16339 19.6119 8.84983 19.3189C8.53626 19.0259 8.36011 18.6285 8.36011 18.2141C8.36011 17.7997 8.53626 17.4022 8.84983 17.1092C9.16339 16.8162 9.58867 16.6516 10.0321 16.6516H26.0599Z" fill="white"/>
    </svg>