<svg width="70" height="69" viewBox="0 0 70 69" fill="none" xmlns="http://www.w3.org/2000/svg">
<ellipse cx="35" cy="34.186" rx="35" ry="34.186" fill="#0077B9" fill-opacity="0.75"/>
<path d="M69 34.186C69 52.492 53.8 67.372 35 67.372C16.2 67.372 1 52.492 1 34.186C1 15.8799 16.2 1 35 1C53.8 1 69 15.8799 69 34.186Z" stroke="#0077B9" stroke-opacity="0.75" stroke-width="2"/>
<path d="M50.2841 43.0546L45.8488 40.5528C45.776 40.512 45.6956 40.4857 45.6123 40.4753C45.529 40.4649 45.4444 40.4706 45.3634 40.4921C45.2824 40.5136 45.2065 40.5505 45.14 40.6007C45.0736 40.6508 45.018 40.7133 44.9762 40.7845L44.176 42.1395C43.9991 42.438 44.1037 42.8229 44.4093 42.9957L48.8446 45.4976C48.9175 45.5384 48.9978 45.5647 49.0811 45.5751C49.1644 45.5855 49.249 45.5798 49.33 45.5583C49.411 45.5368 49.4869 45.4999 49.5534 45.4497C49.6198 45.3995 49.6755 45.3371 49.7172 45.2659L50.5174 43.9109C50.6943 43.6124 50.5857 43.2275 50.2841 43.0546ZM44.9722 27.5877C45.0139 27.6589 45.0696 27.7213 45.136 27.7715C45.2025 27.8217 45.2783 27.8586 45.3594 27.8801C45.4404 27.9016 45.525 27.9073 45.6083 27.8969C45.6916 27.8865 45.7719 27.8602 45.8448 27.8194L50.2801 25.3175C50.5857 25.1447 50.6903 24.7598 50.5134 24.4613L49.7172 23.1102C49.6755 23.039 49.6198 22.9766 49.5534 22.9264C49.4869 22.8762 49.411 22.8393 49.33 22.8178C49.249 22.7963 49.1644 22.7906 49.0811 22.801C48.9978 22.8114 48.9175 22.8377 48.8446 22.8785L44.4093 25.3804C44.2624 25.464 44.1554 25.601 44.1117 25.7615C44.068 25.9219 44.0911 26.0927 44.176 26.2366L44.9722 27.5877ZM51.969 32.7721H46.8219C46.4681 32.7721 46.1786 33.0549 46.1786 33.4006V34.9716C46.1786 35.3172 46.4681 35.6 46.8219 35.6H51.969C52.3229 35.6 52.6124 35.3172 52.6124 34.9716V33.4006C52.6124 33.0549 52.3229 32.7721 51.969 32.7721ZM39.5799 18.5934C39.3426 18.5934 39.1014 18.6563 38.8802 18.8016L24.6253 27.9019H18.0306C17.6767 27.9019 17.3872 28.1847 17.3872 28.5303V39.8419C17.3872 40.1875 17.6767 40.4703 18.0306 40.4703H24.6253L38.8802 49.5706C39.1014 49.712 39.3467 49.7787 39.5799 49.7787C40.2514 49.7787 40.8707 49.2564 40.8707 48.518V19.8542C40.8707 19.1158 40.2514 18.5934 39.5799 18.5934Z" fill="white"/>
</svg>
