<svg width="168" height="168" viewBox="0 0 168 168" fill="none" xmlns="http://www.w3.org/2000/svg">
    <rect x="2.25244" width="165" height="165" rx="82.5" transform="rotate(0.782262 2.25244 0)"
        fill="#A84141" />
    <path
        d="M60.0008 51.0008C59.2332 51.0008 58.4647 51.2932 57.8798 51.8798L51.8798 57.8798C50.7067 59.0528 50.7067 60.9519 51.8798 62.1219L73.7587 84.0008L51.8798 105.88C50.7067 107.053 50.7067 108.952 51.8798 110.122L57.8798 116.122C59.0528 117.295 60.9519 117.295 62.1219 116.122L84.0008 94.243L105.88 116.122C107.05 117.295 108.952 117.295 110.122 116.122L116.122 110.122C117.295 108.949 117.295 107.05 116.122 105.88L94.243 84.0008L116.122 62.1219C117.295 60.9519 117.295 59.0498 116.122 57.8798L110.122 51.8798C108.949 50.7067 107.05 50.7067 105.88 51.8798L84.0008 73.7587L62.1219 51.8798C61.5354 51.2932 60.7685 51.0008 60.0008 51.0008Z"
        fill="white" />
</svg>
    